<svg width="512" height="1024" xmlns="http://www.w3.org/2000/svg">

 <g>
  <title>background</title>
  <rect fill="none" id="canvas_background" height="402" width="582" y="-1" x="-1"/>
 </g>
 <g>
  <title>Layer 1</title>
  <path fill="#4098ff" id="svg_1" d="m448,192c0,-106 -85.938,-192 -192,-192s-192,86 -192,192c0,106.062 85.938,192 192,192s192,-85.938 192,-192zm-192,128c-70.656,0 -128,-57.344 -128,-128s57.344,-128 128,-128c70.625,0 128,57.344 128,128s-57.375,128 -128,128zm128,64l-128,0l-128,0c-70.656,0 -128,57.344 -128,128l0,128c0,70.625 57.344,128 128,128l0,256l256,0l0,-256c70.625,0 128,-57.375 128,-128l0,-128c0,-70.656 -57.375,-128 -128,-128zm64,256c0,35.375 -28.625,64 -64,64l0,-128l-64,0l0,384l-128,0l0,-384l-64,0l0,128c-35.312,0 -64,-28.625 -64,-64l0,-128c0,-35.312 28.688,-64 64,-64l256,0c35.375,0 64,28.688 64,64l0,128z"/>
 </g>
</svg>