<svg width="32" height="32" xmlns="http://www.w3.org/2000/svg">

 <g>
  <title>background</title>
  <rect fill="none" id="canvas_background" height="402" width="582" y="-1" x="-1"/>
 </g>
 <g>
  <title>Layer 1</title>
  <path fill="#4098ff" id="svg_2" d="m15,8l2,0c0.6,0 1,-0.4 1,-1s-0.4,-1 -1,-1l-2,0c-0.6,0 -1,0.4 -1,1s0.4,1 1,1z"/>
  <path fill="#4098ff" id="svg_3" d="m29.9,20.5c-0.2,-0.3 -0.6,-0.5 -0.9,-0.5l-1.1,0c-0.5,-4.4 -4.1,-8.8 -8.7,-10.2c-2.1,-0.7 -4.4,-0.7 -6.5,0c-4.5,1.4 -8.2,5.8 -8.6,10.2l-1.1,0c-0.3,0 -0.7,0.2 -0.9,0.5s-0.2,0.7 0,1c1.4,2.8 4.2,4.5 7.4,4.5l13.1,0c3.1,0 6,-1.7 7.4,-4.6c0,-0.3 0,-0.6 -0.1,-0.9zm-16.6,-8.8c1.7,-0.5 3.6,-0.5 5.3,0c3.7,1.1 6.8,4.7 7.3,8.3l-19.8,0c0.5,-3.6 3.5,-7.1 7.2,-8.3zm9.2,12.3l-13,0c-1.8,0 -3.4,-0.7 -4.6,-2l22.2,0c-1.2,1.3 -2.8,2 -4.6,2z"/>
 </g>
</svg>